<mxfile host="app.diagrams.net" modified="2021-03-27T08:54:03.440Z" agent="5.0 (Windows)" etag="j-HK3qws1SQmAZhKFvVS" version="14.5.3" type="github">
  <diagram id="Fp67fDhxGuNdgrEgzdqk" name="Page-1">
    <mxGraphModel dx="1038" dy="627" grid="1" gridSize="10" guides="1" tooltips="1" connect="1" arrows="1" fold="1" page="1" pageScale="1" pageWidth="827" pageHeight="1169" math="0" shadow="0">
      <root>
        <mxCell id="0" />
        <mxCell id="1" parent="0" />
        <mxCell id="AOjzqq8pOJFKrJcX-N_s-1" value="" style="shape=mxgraph.bpmn.shape;html=1;verticalLabelPosition=bottom;labelBackgroundColor=#ffffff;verticalAlign=top;align=center;perimeter=ellipsePerimeter;outlineConnect=0;outline=throwing;symbol=compensation;" vertex="1" parent="1">
          <mxGeometry x="400" y="300" width="50" height="50" as="geometry" />
        </mxCell>
      </root>
    </mxGraphModel>
  </diagram>
</mxfile>
